<?xml version="1.0" standalone="no"?>
<!DOCTYPE svg PUBLIC "-//W3C//DTD SVG 20010904//EN"
 "http://www.w3.org/TR/2001/REC-SVG-20010904/DTD/svg10.dtd">
<svg version="1.0" xmlns="http://www.w3.org/2000/svg"
 width="198.000000pt" height="140.000000pt" viewBox="0 0 198.000000 140.000000"
 preserveAspectRatio="xMidYMid meet">
<metadata>
Created by potrace 1.16, written by Peter Selinger 2001-2019
</metadata>
<g transform="translate(0.000000,140.000000) scale(0.100000,-0.100000)"
fill="#000000" stroke="none">
<path d="M100 1094 c25 -8 115 -21 200 -29 161 -14 233 -31 208 -46 -10 -7
-10 -9 2 -9 31 0 97 -44 161 -107 65 -63 69 -65 125 -70 58 -4 169 11 209 28
36 15 105 15 105 -1 0 -5 -8 -6 -17 -3 -13 5 -15 2 -10 -11 4 -10 7 -19 7 -21
0 -2 13 2 30 8 25 9 33 9 47 -6 16 -16 15 -17 -27 -17 -36 -1 -49 -6 -63 -25
-20 -28 -12 -32 17 -10 11 8 34 15 52 15 18 0 36 4 39 10 8 13 -12 50 -27 50
-7 0 -22 10 -35 21 -21 21 -26 21 -85 10 -119 -23 -136 -24 -169 -7 -18 9 -40
16 -50 16 -10 0 -20 4 -24 10 -3 5 -12 7 -19 4 -8 -3 -17 -1 -21 5 -3 6 -11
11 -17 11 -7 0 -6 -6 2 -15 7 -8 10 -15 6 -15 -4 0 1 -11 10 -25 9 -15 12 -25
5 -25 -6 0 -40 36 -77 80 -106 128 -166 153 -419 170 -82 6 -163 12 -180 15
-19 3 -14 -1 15 -11z"/>
</g>
</svg>
